<svg xmlns="http://www.w3.org/2000/svg" width="1000" height="2000" viewBox="0 0 2000 5000"><!--@width and @height attributes on <svg> establish dimensions. ViewBox can compress, expand, cut off.   --><!-- Inside the XML document portions, use XML comments! -->
    <g transform="translate(500, 0)">
        <g id="A.C. Reed">
            <text x="-400" y="85" stroke="indigo" font-size="30">A.C. Reed</text>
            <line x1="0" y1="80" x2="60" y2="80" stroke="blue" stroke-width="10"/>
            <circle cx="60" cy="80" r="30" stroke="indigo" stroke-width="3" fill="papayawhip"/>
            <text x="60" y="87" stroke="indigo" font-size="30" text-anchor="middle">12</text>
        </g>
        <g id="Albert Collins">
            <text x="-400" y="165" stroke="indigo" font-size="30">Albert Collins</text>
            <line x1="0" y1="160" x2="260" y2="160" stroke="blue" stroke-width="10"/>
            <circle cx="260" cy="160" r="30" stroke="indigo" stroke-width="3" fill="papayawhip"/>
            <text x="260" y="167" stroke="indigo" font-size="30" text-anchor="middle">52</text>
        </g>
        <g id="Albert King">
            <text x="-400" y="245" stroke="indigo" font-size="30">Albert King</text>
            <line x1="0" y1="240" x2="165" y2="240" stroke="blue" stroke-width="10"/>
            <circle cx="165" cy="240" r="30" stroke="indigo" stroke-width="3" fill="papayawhip"/>
            <text x="165" y="247" stroke="indigo" font-size="30" text-anchor="middle">33</text>
        </g>
        <g id="Alvin Youngblood Hart">
            <text x="-400" y="325" stroke="indigo" font-size="30">Alvin Youngblood Hart</text>
            <line x1="0" y1="320" x2="50" y2="320" stroke="blue" stroke-width="10"/>
            <circle cx="50" cy="320" r="30" stroke="indigo" stroke-width="3" fill="papayawhip"/>
            <text x="50" y="327" stroke="indigo" font-size="30" text-anchor="middle">10</text>
        </g>
        <g id="B.B. King">
            <text x="-400" y="405" stroke="indigo" font-size="30">B.B. King</text>
            <line x1="0" y1="400" x2="1380" y2="400" stroke="blue" stroke-width="10"/>
            <circle cx="1380" cy="400" r="30" stroke="indigo" stroke-width="3" fill="papayawhip"/>
            <text x="1380" y="407" stroke="indigo" font-size="30" text-anchor="middle">276</text>
        </g>
        <g id="Bessie Smith">
            <text x="-400" y="485" stroke="indigo" font-size="30">Bessie Smith</text>
            <line x1="0" y1="480" x2="330" y2="480" stroke="blue" stroke-width="10"/>
            <circle cx="330" cy="480" r="30" stroke="indigo" stroke-width="3" fill="papayawhip"/>
            <text x="330" y="487" stroke="indigo" font-size="30" text-anchor="middle">66</text>
        </g>
        <g id="Big Maceo Merriweather">
            <text x="-400" y="565" stroke="indigo" font-size="30">Big Maceo Merriweather</text>
            <line x1="0" y1="560" x2="60" y2="560" stroke="blue" stroke-width="10"/>
            <circle cx="60" cy="560" r="30" stroke="indigo" stroke-width="3" fill="papayawhip"/>
            <text x="60" y="567" stroke="indigo" font-size="30" text-anchor="middle">12</text>
        </g>
        <g id="Blind Lemon Jefferson">
            <text x="-400" y="645" stroke="indigo" font-size="30">Blind Lemon Jefferson</text>
            <line x1="0" y1="640" x2="70" y2="640" stroke="blue" stroke-width="10"/>
            <circle cx="70" cy="640" r="30" stroke="indigo" stroke-width="3" fill="papayawhip"/>
            <text x="70" y="647" stroke="indigo" font-size="30" text-anchor="middle">14</text>
        </g>
        <g id="Bo Diddley">
            <text x="-400" y="725" stroke="indigo" font-size="30">Bo Diddley</text>
            <line x1="0" y1="720" x2="100" y2="720" stroke="blue" stroke-width="10"/>
            <circle cx="100" cy="720" r="30" stroke="indigo" stroke-width="3" fill="papayawhip"/>
            <text x="100" y="727" stroke="indigo" font-size="30" text-anchor="middle">20</text>
        </g>
        <g id="Clara Smith">
            <text x="-400" y="805" stroke="indigo" font-size="30">Clara Smith</text>
            <line x1="0" y1="800" x2="30" y2="800" stroke="blue" stroke-width="10"/>
            <circle cx="30" cy="800" r="30" stroke="indigo" stroke-width="3" fill="papayawhip"/>
            <text x="30" y="807" stroke="indigo" font-size="30" text-anchor="middle">6</text>
        </g>
        <g id="Freddie King">
            <text x="-400" y="885" stroke="indigo" font-size="30">Freddie King</text>
            <line x1="0" y1="880" x2="80" y2="880" stroke="blue" stroke-width="10"/>
            <circle cx="80" cy="880" r="30" stroke="indigo" stroke-width="3" fill="papayawhip"/>
            <text x="80" y="887" stroke="indigo" font-size="30" text-anchor="middle">16</text>
        </g>
        <g id="Gary Moore">
            <text x="-400" y="965" stroke="indigo" font-size="30">Gary Moore</text>
            <line x1="0" y1="960" x2="65" y2="960" stroke="blue" stroke-width="10"/>
            <circle cx="65" cy="960" r="30" stroke="indigo" stroke-width="3" fill="papayawhip"/>
            <text x="65" y="967" stroke="indigo" font-size="30" text-anchor="middle">13</text>
        </g>
        <g id="George Thorogood">
            <text x="-400" y="1045" stroke="indigo" font-size="30">George Thorogood</text>
            <line x1="0" y1="1040" x2="75" y2="1040" stroke="blue" stroke-width="10"/>
            <circle cx="75" cy="1040" r="30" stroke="indigo" stroke-width="3" fill="papayawhip"/>
            <text x="75" y="1047" stroke="indigo" font-size="30" text-anchor="middle">15</text>
        </g>
        <g id="Howlin' Wolf">
            <text x="-400" y="1125" stroke="indigo" font-size="30">Howlin' Wolf</text>
            <line x1="0" y1="1120" x2="225" y2="1120" stroke="blue" stroke-width="10"/>
            <circle cx="225" cy="1120" r="30" stroke="indigo" stroke-width="3" fill="papayawhip"/>
            <text x="225" y="1127" stroke="indigo" font-size="30" text-anchor="middle">45</text>
        </g>
        <g id="Ida Cox">
            <text x="-400" y="1205" stroke="indigo" font-size="30">Ida Cox</text>
            <line x1="0" y1="1200" x2="125" y2="1200" stroke="blue" stroke-width="10"/>
            <circle cx="125" cy="1200" r="30" stroke="indigo" stroke-width="3" fill="papayawhip"/>
            <text x="125" y="1207" stroke="indigo" font-size="30" text-anchor="middle">25</text>
        </g>
        <g id="Janis Joplin">
            <text x="-400" y="1285" stroke="indigo" font-size="30">Janis Joplin</text>
            <line x1="0" y1="1280" x2="75" y2="1280" stroke="blue" stroke-width="10"/>
            <circle cx="75" cy="1280" r="30" stroke="indigo" stroke-width="3" fill="papayawhip"/>
            <text x="75" y="1287" stroke="indigo" font-size="30" text-anchor="middle">15</text>
        </g>
        <g id="Jimmy Witherspoon">
            <text x="-400" y="1365" stroke="indigo" font-size="30">Jimmy Witherspoon</text>
            <line x1="0" y1="1360" x2="40" y2="1360" stroke="blue" stroke-width="10"/>
            <circle cx="40" cy="1360" r="30" stroke="indigo" stroke-width="3" fill="papayawhip"/>
            <text x="40" y="1367" stroke="indigo" font-size="30" text-anchor="middle">8</text>
        </g>
        <g id="John Lee Hooker">
            <text x="-400" y="1445" stroke="indigo" font-size="30">John Lee Hooker</text>
            <line x1="0" y1="1440" x2="340" y2="1440" stroke="blue" stroke-width="10"/>
            <circle cx="340" cy="1440" r="30" stroke="indigo" stroke-width="3" fill="papayawhip"/>
            <text x="340" y="1447" stroke="indigo" font-size="30" text-anchor="middle">68</text>
        </g>
        <g id="John Mayall's Bluesbreakers">
            <text x="-400" y="1525" stroke="indigo" font-size="30">John Mayall's Bluesbreakers</text>
            <line x1="0" y1="1520" x2="70" y2="1520" stroke="blue" stroke-width="10"/>
            <circle cx="70" cy="1520" r="30" stroke="indigo" stroke-width="3" fill="papayawhip"/>
            <text x="70" y="1527" stroke="indigo" font-size="30" text-anchor="middle">14</text>
        </g>
        <g id="Jonny Lang">
            <text x="-400" y="1605" stroke="indigo" font-size="30">Jonny Lang</text>
            <line x1="0" y1="1600" x2="135" y2="1600" stroke="blue" stroke-width="10"/>
            <circle cx="135" cy="1600" r="30" stroke="indigo" stroke-width="3" fill="papayawhip"/>
            <text x="135" y="1607" stroke="indigo" font-size="30" text-anchor="middle">27</text>
        </g>
        <g id="Junior Parker">
            <text x="-400" y="1685" stroke="indigo" font-size="30">Junior Parker</text>
            <line x1="0" y1="1680" x2="80" y2="1680" stroke="blue" stroke-width="10"/>
            <circle cx="80" cy="1680" r="30" stroke="indigo" stroke-width="3" fill="papayawhip"/>
            <text x="80" y="1687" stroke="indigo" font-size="30" text-anchor="middle">16</text>
        </g>
        <g id="Keb' Mo'">
            <text x="-400" y="1765" stroke="indigo" font-size="30">Keb' Mo'</text>
            <line x1="0" y1="1760" x2="155" y2="1760" stroke="blue" stroke-width="10"/>
            <circle cx="155" cy="1760" r="30" stroke="indigo" stroke-width="3" fill="papayawhip"/>
            <text x="155" y="1767" stroke="indigo" font-size="30" text-anchor="middle">31</text>
        </g>
        <g id="Kenny Wayne Shepherd">
            <text x="-400" y="1845" stroke="indigo" font-size="30">Kenny Wayne Shepherd</text>
            <line x1="0" y1="1840" x2="40" y2="1840" stroke="blue" stroke-width="10"/>
            <circle cx="40" cy="1840" r="30" stroke="indigo" stroke-width="3" fill="papayawhip"/>
            <text x="40" y="1847" stroke="indigo" font-size="30" text-anchor="middle">8</text>
        </g>
        <g id="Ma Rainey">
            <text x="-400" y="1925" stroke="indigo" font-size="30">Ma Rainey</text>
            <line x1="0" y1="1920" x2="80" y2="1920" stroke="blue" stroke-width="10"/>
            <circle cx="80" cy="1920" r="30" stroke="indigo" stroke-width="3" fill="papayawhip"/>
            <text x="80" y="1927" stroke="indigo" font-size="30" text-anchor="middle">16</text>
        </g>
        <g id="Memphis Slim">
            <text x="-400" y="2005" stroke="indigo" font-size="30">Memphis Slim</text>
            <line x1="0" y1="2000" x2="70" y2="2000" stroke="blue" stroke-width="10"/>
            <circle cx="70" cy="2000" r="30" stroke="indigo" stroke-width="3" fill="papayawhip"/>
            <text x="70" y="2007" stroke="indigo" font-size="30" text-anchor="middle">14</text>
        </g>
        <g id="Mississippi Fred McDowell">
            <text x="-400" y="2085" stroke="indigo" font-size="30">Mississippi Fred McDowell</text>
            <line x1="0" y1="2080" x2="75" y2="2080" stroke="blue" stroke-width="10"/>
            <circle cx="75" cy="2080" r="30" stroke="indigo" stroke-width="3" fill="papayawhip"/>
            <text x="75" y="2087" stroke="indigo" font-size="30" text-anchor="middle">15</text>
        </g>
        <g id="Muddy Waters">
            <text x="-400" y="2165" stroke="indigo" font-size="30">Muddy Waters</text>
            <line x1="0" y1="2160" x2="295" y2="2160" stroke="blue" stroke-width="10"/>
            <circle cx="295" cy="2160" r="30" stroke="indigo" stroke-width="3" fill="papayawhip"/>
            <text x="295" y="2167" stroke="indigo" font-size="30" text-anchor="middle">59</text>
        </g>
        <g id="Robert Johnson">
            <text x="-400" y="2245" stroke="indigo" font-size="30">Robert Johnson</text>
            <line x1="0" y1="2240" x2="155" y2="2240" stroke="blue" stroke-width="10"/>
            <circle cx="155" cy="2240" r="30" stroke="indigo" stroke-width="3" fill="papayawhip"/>
            <text x="155" y="2247" stroke="indigo" font-size="30" text-anchor="middle">31</text>
        </g>
        <g id="Slim Harpo">
            <text x="-400" y="2325" stroke="indigo" font-size="30">Slim Harpo</text>
            <line x1="0" y1="2320" x2="20" y2="2320" stroke="blue" stroke-width="10"/>
            <circle cx="20" cy="2320" r="30" stroke="indigo" stroke-width="3" fill="papayawhip"/>
            <text x="20" y="2327" stroke="indigo" font-size="30" text-anchor="middle">4</text>
        </g>
        <g id="Sonny Boy Williamson I (John Lee)">
            <text x="-400" y="2405" stroke="indigo" font-size="30">Sonny Boy Williamson I </text>
            <line x1="0" y1="2400" x2="90" y2="2400" stroke="blue" stroke-width="10"/>
            <circle cx="90" cy="2400" r="30" stroke="indigo" stroke-width="3" fill="papayawhip"/>
            <text x="90" y="2407" stroke="indigo" font-size="30" text-anchor="middle">18</text>
        </g>
        <g id="Stevie Ray Vaughan">
            <text x="-400" y="2485" stroke="indigo" font-size="30">Stevie Ray Vaughan</text>
            <line x1="0" y1="2480" x2="240" y2="2480" stroke="blue" stroke-width="10"/>
            <circle cx="240" cy="2480" r="30" stroke="indigo" stroke-width="3" fill="papayawhip"/>
            <text x="240" y="2487" stroke="indigo" font-size="30" text-anchor="middle">48</text>
        </g>
        <g id="Susan Tedeschi">
            <text x="-400" y="2565" stroke="indigo" font-size="30">Susan Tedeschi</text>
            <line x1="0" y1="2560" x2="100" y2="2560" stroke="blue" stroke-width="10"/>
            <circle cx="100" cy="2560" r="30" stroke="indigo" stroke-width="3" fill="papayawhip"/>
            <text x="100" y="2567" stroke="indigo" font-size="30" text-anchor="middle">20</text>
        </g>
        <g id="T-Bone Walker">
            <text x="-400" y="2645" stroke="indigo" font-size="30">T-Bone Walker</text>
            <line x1="0" y1="2640" x2="85" y2="2640" stroke="blue" stroke-width="10"/>
            <circle cx="85" cy="2640" r="30" stroke="indigo" stroke-width="3" fill="papayawhip"/>
            <text x="85" y="2647" stroke="indigo" font-size="30" text-anchor="middle">17</text>
        </g>
        <g id="The Fabulous Thunderbirds">
            <text x="-400" y="2725" stroke="indigo" font-size="30">The Fabulous Thunderbirds</text>
            <line x1="0" y1="2720" x2="70" y2="2720" stroke="blue" stroke-width="10"/>
            <circle cx="70" cy="2720" r="30" stroke="indigo" stroke-width="3" fill="papayawhip"/>
            <text x="70" y="2727" stroke="indigo" font-size="30" text-anchor="middle">14</text>
        </g>
        <g id="ZZ Top">
            <text x="-400" y="2805" stroke="indigo" font-size="30">ZZ Top</text>
            <line x1="0" y1="2800" x2="100" y2="2800" stroke="blue" stroke-width="10"/>
            <circle cx="100" cy="2800" r="30" stroke="indigo" stroke-width="3" fill="papayawhip"/>
            <text x="100" y="2807" stroke="indigo" font-size="30" text-anchor="middle">20</text>
        </g>
    </g>
</svg>